#!OML:ASF G:\JayActor3\Patient Classification 1\Patient 1\Session 5\male.ASF
:FULLY-SPECIFIED
:DEGREES
355
root 26.8653 16.2694 -5.36071 667.241 -83.5576 -652.989
lowerback 26.1171 -0.753859 -2.78854
upperback 6.45279 -2.3273 -1.49217
thorax -7.26999 -1.28343 0.715849
lowerneck 0.454051 -0.651186 1.85021
upperneck -5.10636 -0.829363 0.935574
head -1.6592 -0.484307 -0.00560699
rclavicle -2.8302e-014 -5.03795e-015
rhumerus -30.8788 -6.80255 -86.3375
rradius 27.2685
rwrist 0.686462
rhand -20.2572 -8.16672
rfingers 7.12502
rthumb 6.09153 -38.0591
lclavicle -2.8302e-014 -5.03795e-015
lhumerus -33.2102 1.87345 84.947
lradius 29.1303
lwrist 25.5414
lhand -19.0839 11.7018
lfingers 7.12502
lthumb 7.22416 41.5585
rfemur -56.1407 3.48148 9.52424
rtibia 32.7039
rfoot -23.5641 -15.3733
rtoes -11.4087
lfemur -14.0991 0.598306 -30.8565
ltibia 23.8362
lfoot -19.6515 0.705586
ltoes -0.261442
356
root 26.7109 16.2572 -5.37686 668.281 -83.2387 -654.088
lowerback 26.0094 -0.797802 -2.89547
upperback 6.47402 -2.40718 -1.5145
thorax -7.18702 -1.32145 0.773877
lowerneck 0.487388 -0.682135 1.82291
upperneck -5.10218 -0.868947 0.96398
head -1.66358 -0.504021 0.00851322
rclavicle -1.51076e-014 -1.29893e-014
rhumerus -30.9277 -6.87516 -86.2543
rradius 27.1858
rwrist 0.800122
rhand -20.2623 -8.17401
rfingers 7.12502
rthumb 6.08662 -38.0666
lclavicle -1.51076e-014 -1.29893e-014
lhumerus -33.2569 1.9046 84.9578
lradius 29.1082
lwrist 25.5283
lhand -19.1156 11.7265
lfingers 7.12502
lthumb 7.19353 41.5843
rfemur -55.9272 3.77434 8.83305
rtibia 31.154
rfoot -24.0291 -16.051
rtoes -10.7363
lfemur -13.0104 0.798786 -30.992
ltibia 23.0809
lfoot -19.6568 0.420169
ltoes -0.419621
357
root 26.5548 16.2425 -5.39344 669.304 -82.936 -655.156
lowerback 25.892 -0.84276 -2.98069
upperback 6.48959 -2.48114 -1.532
thorax -7.10608 -1.35668 0.822465
lowerneck 0.519572 -0.715233 1.80477
upperneck -5.0895 -0.911787 0.980078
head -1.66515 -0.525145 0.0173184
rclavicle 2.96313e-014 -7.51655e-015
rhumerus -30.9796 -6.96104 -86.168
rradius 27.1045
rwrist 0.927819
rhand -20.276 -8.17832
rfingers 7.12502
rthumb 6.07336 -38.0713
lclavicle 2.96313e-014 -7.51655e-015
lhumerus -33.2957 1.9395 84.9695
lradius 29.0715
lwrist 25.5121
lhand -19.1477 11.7375
lfingers 7.12502
lthumb 7.16256 41.5963
rfemur -55.7617 3.9826 8.26197
rtibia 29.8788
rfoot -24.427 -16.5838
rtoes -10.079
lfemur -11.9738 1.0114 -31.1022
ltibia 22.4036
lfoot -19.6809 0.161084
ltoes -0.606806
358
root 26.3967 16.2254 -5.41035 670.27 -82.652 -656.155
lowerback 25.7713 -0.886047 -3.04757
upperback 6.50055 -2.54722 -1.54514
thorax -7.02917 -1.38818 0.862643
lowerneck 0.546712 -0.750991 1.79927
upperneck -5.06816 -0.958787 0.979864
head -1.66323 -0.548116 0.0189744
rclavicle -3.64521e-014 -4.80313e-014
rhumerus -31.032 -7.05078 -86.0817
rradius 27.021
rwrist 1.05765
rhand -20.3022 -8.17752
rfingers 7.12502
rthumb 6.04809 -38.0712
lclavicle -3.64521e-014 -4.80313e-014
lhumerus -33.3327 1.96914 84.9857
lradius 29.0281
lwrist 25.4932
lhand -19.1857 11.7416
lfingers 7.12502
lthumb 7.12589 41.6016
rfemur -55.6358 4.08687 7.83926
rtibia 28.8873
rfoot -24.7257 -16.9119
rtoes -9.55849
lfemur -10.991 1.23613 -31.1876
ltibia 21.8173
lfoot -19.7328 -0.072132
ltoes -0.829329
359
root 26.2367 16.2062 -5.42765 671.16 -82.3929 -657.073
lowerback 25.6457 -0.926501 -3.10165
upperback 6.51214 -2.60546 -1.55216
thorax -6.94949 -1.41622 0.899418
lowerneck 0.562344 -0.780351 1.79593
upperneck -5.03876 -0.997871 0.971988
head -1.65673 -0.566896 0.0176929
rclavicle -1.92821e-014 -2.31087e-014
rhumerus -31.0697 -7.13654 -85.9977
rradius 26.9272
rwrist 1.19022
rhand -20.339 -8.16602
rfingers 7.12502
rthumb 6.01251 -38.0607
lclavicle -1.92821e-014 -2.31087e-014
lhumerus -33.3662 1.99825 85.0064
lradius 28.9839
lwrist 25.4688
lhand -19.2387 11.7439
lfingers 7.12502
lthumb 7.07471 41.6057
rfemur -55.5403 4.09682 7.56662
rtibia 28.1773
rfoot -24.8976 -16.995
rtoes -9.20925
lfemur -10.0657 1.46746 -31.242
ltibia 21.334
lfoot -19.8158 -0.282108
ltoes -1.08994
360
root 26.0744 16.1852 -5.44557 671.979 -82.1564 -657.917
lowerback 25.5283 -0.963826 -3.14815
upperback 6.522 -2.65747 -1.55257
thorax -6.87592 -1.4413 0.937277
lowerneck 0.573184 -0.805261 1.79908
upperneck -5.0056 -1.03142 0.954632
head -1.64827 -0.582784 0.0122628
rclavicle -2.10215e-014 -8.44835e-015
rhumerus -31.1011 -7.20924 -85.9175
rradius 26.8304
rwrist 1.31511
rhand -20.3933 -8.1456
rfingers 7.12502
rthumb 5.96015 -38.0418
lclavicle -2.10215e-014 -8.44835e-015
lhumerus -33.4073 2.01917 85.0361
lradius 28.9504
lwrist 25.4449
lhand -19.2986 11.7545
lfingers 7.12502
lthumb 7.01692 41.6182
rfemur -55.4599 4.04063 7.41733
rtibia 27.7389
rfoot -24.9242 -16.8436
rtoes -9.00201
lfemur -9.19011 1.69832 -31.2621
ltibia 20.9534
lfoot -19.924 -0.497438
ltoes -1.33872
361
root 25.9099 16.1624 -5.46435 672.758 -81.9452 -658.723
lowerback 25.4217 -0.998397 -3.18749
upperback 6.53181 -2.70388 -1.54404
thorax -6.80774 -1.46377 0.979289
lowerneck 0.580394 -0.822341 1.79674
upperneck -4.97338 -1.05465 0.938592
head -1.63939 -0.593467 0.00797744
rclavicle 1.2424e-014 1.65488e-014
rhumerus -31.1184 -7.26992 -85.8392
rradius 26.7247
rwrist 1.43443
rhand -20.4454 -8.11895
rfingers 7.12502
rthumb 5.90983 -38.0165
lclavicle 1.2424e-014 1.65488e-014
lhumerus -33.4528 2.04362 85.0716
lradius 28.9233
lwrist 25.4113
lhand -19.3588 11.7771
lfingers 7.12502
lthumb 6.95884 41.6427
rfemur -55.3825 3.95949 7.35899
rtibia 27.5533
rfoot -24.793 -16.5283
rtoes -8.90943
lfemur -8.36059 1.93292 -31.2405
ltibia 20.6751
lfoot -20.0521 -0.731206
ltoes -1.60764
362
root 25.7428 16.1384 -5.48404 673.533 -81.7543 -659.532
lowerback 25.328 -1.03314 -3.21671
upperback 6.54436 -2.74818 -1.52898
thorax -6.74312 -1.48549 1.02223
lowerneck 0.583463 -0.835652 1.79396
upperneck -4.94072 -1.07286 0.925655
head -1.6296 -0.601702 0.00462699
rclavicle 1.68967e-015 8.44835e-015
rhumerus -31.1235 -7.33006 -85.7648
rradius 26.6135
rwrist 1.55628
rhand -20.4982 -8.08837
rfingers 7.12502
rthumb 5.85882 -37.9874
lclavicle 1.68967e-015 8.44835e-015
lhumerus -33.5011 2.06807 85.1104
lradius 28.9006
lwrist 25.3714
lhand -19.4078 11.8059
lfingers 7.12502
lthumb 6.91153 41.6731
rfemur -55.2879 3.90121 7.3397
rtibia 27.5956
rfoot -24.5503 -16.105
rtoes -8.78422
lfemur -7.56871 2.17751 -31.1748
ltibia 20.4959
lfoot -20.1926 -1.00746
ltoes -1.88835
